<svg width="25" height="29" viewBox="0 0 25 29" fill="none" xmlns="http://www.w3.org/2000/svg">
    <path fill-rule="evenodd" clip-rule="evenodd"
        d="M12.001 0.133604C12.3211 -0.0510982 12.7168 -0.043714 13.0303 0.152158L24.2275 7.14923C24.5199 7.33197 24.6973 7.65309 24.6973 7.99786V20.5877C24.6971 20.9323 24.5197 21.2527 24.2275 21.4354L13.0439 28.4246C12.7235 28.6249 12.3171 28.6277 11.9941 28.4315L0.480469 21.4334C0.182194 21.252 0 20.928 0 20.5789V7.64044C0 7.28319 0.190625 6.95287 0.5 6.77423L12.001 0.133604ZM4.52832 18.4783L9.85547 21.9022V14.2918L4.52832 11.2479V18.4783ZM7.19238 8.58478L14.4219 12.7703V21.9022L20.1289 18.4783V10.1063L12.5195 5.54083L7.19238 8.58478Z"
        fill="white" />
</svg>